<?xml version="1.0" encoding="utf-8"?>
<!-- Generator: Adobe Illustrator 23.0.2, SVG Export Plug-In . SVG Version: 6.00 Build 0)  -->
<svg version="1.1" id="Capa_1" xmlns="http://www.w3.org/2000/svg" xmlns:xlink="http://www.w3.org/1999/xlink" x="0px" y="0px"
	 viewBox="0 0 300 100" style="enable-background:new 0 0 300 100;" xml:space="preserve">
<style type="text/css">
	.st0{clip-path:url(#SVGID_2_);}
	.st1{clip-path:url(#SVGID_4_);fill:url(#SVGID_5_);}
	.st2{clip-path:url(#SVGID_7_);fill:url(#SVGID_8_);}
	.st3{clip-path:url(#SVGID_10_);fill:url(#SVGID_11_);}
	.st4{clip-path:url(#SVGID_13_);fill:url(#SVGID_14_);}
	.st5{clip-path:url(#SVGID_16_);fill:url(#SVGID_17_);}
	.st6{clip-path:url(#SVGID_19_);fill:url(#SVGID_20_);}
	.st7{clip-path:url(#SVGID_22_);fill:url(#SVGID_23_);}
	.st8{clip-path:url(#SVGID_25_);fill:url(#SVGID_26_);}
	.st9{clip-path:url(#SVGID_28_);fill:#CEA61D;}
	.st10{clip-path:url(#SVGID_28_);fill:#B31E17;}
	.st11{clip-path:url(#SVGID_28_);fill:#002F46;}
</style>
<g>
	<g>
		<defs>
			<rect id="SVGID_1_" x="-26.43" y="-110.21" width="355.72" height="318.94"/>
		</defs>
		<clipPath id="SVGID_2_">
			<use xlink:href="#SVGID_1_"  style="overflow:visible;"/>
		</clipPath>
		<g class="st0">
			<defs>
				<path id="SVGID_3_" d="M21.74,52.99h7.27c0.73,0,1.51,0.06,2.32,0.18c0.81,0.12,1.52,0.27,2.02,0.4
					c1.7,0.57,2.97,1.44,3.87,2.66c0.9,1.21,1.33,2.55,1.33,4.11c0,1.52-0.4,2.93-1.22,4.31c-2.72,4.61-6.89,6.85-12.75,6.85h-6.17
					L21.74,52.99z M25.76,30.74h6.66c1.18,0,2.63,0.21,4.25,0.6c1.81,0.53,3.19,1.37,4.09,2.49c0.9,1.11,1.33,2.33,1.33,3.73
					c0,1.28-0.39,2.6-1.16,3.92c-2.49,4.29-6.28,6.38-11.58,6.38H22.7L25.76,30.74z M16.66,25.52l-9.21,51.2h19.38
					c9.1,0,15.84-3.08,20.03-9.16c1.77-2.52,2.66-5.16,2.66-7.82c0-2.65-0.91-5-2.71-7c-0.97-1.07-2.09-1.97-3.38-2.68
					c2.58-1.06,4.61-2.55,6.05-4.43c1.97-2.58,2.97-5.32,2.97-8.14c0-4.17-1.84-7.36-5.48-9.48c-2.87-1.65-6.46-2.48-10.67-2.48
					H16.66z"/>
			</defs>
			<clipPath id="SVGID_4_">
				<use xlink:href="#SVGID_3_"  style="overflow:visible;"/>
			</clipPath>
			
				<linearGradient id="SVGID_5_" gradientUnits="userSpaceOnUse" x1="-3.4735" y1="0.7516" x2="-2.876" y2="0.7516" gradientTransform="matrix(0 -85.6829 -85.6829 0 94.3504 -220.8995)">
				<stop  offset="0" style="stop-color:#1F1813"/>
				<stop  offset="0.1773" style="stop-color:#636266"/>
				<stop  offset="0.1841" style="stop-color:#605F63"/>
				<stop  offset="0.2256" style="stop-color:#514F4F"/>
				<stop  offset="0.2723" style="stop-color:#44403E"/>
				<stop  offset="0.3239" style="stop-color:#393431"/>
				<stop  offset="0.3822" style="stop-color:#312B27"/>
				<stop  offset="0.4503" style="stop-color:#29231F"/>
				<stop  offset="0.5344" style="stop-color:#231C19"/>
				<stop  offset="0.6525" style="stop-color:#201914"/>
				<stop  offset="0.9803" style="stop-color:#1F1813"/>
				<stop  offset="1" style="stop-color:#1F1813"/>
			</linearGradient>
			<rect x="7.45" y="25.52" class="st1" width="45.01" height="51.2"/>
		</g>
		<g class="st0">
			<defs>
				<path id="SVGID_6_" d="M60.08,33.29c-1.29,0-2.39,0.91-2.62,2.15l-5.37,29.88c-0.16,0.9,0.09,1.82,0.69,2.52
					c0.6,0.7,1.48,1.1,2.41,1.1H70.5l0.68-4.26H59.76l2.19-12.08h10.4l0.83-4.21H62.7l1.96-10.85h11.43l0.81-4.26H60.08z"/>
			</defs>
			<clipPath id="SVGID_7_">
				<use xlink:href="#SVGID_6_"  style="overflow:visible;"/>
			</clipPath>
			
				<linearGradient id="SVGID_8_" gradientUnits="userSpaceOnUse" x1="-5.0758" y1="1.4698" x2="-4.4782" y2="1.4698" gradientTransform="matrix(0 -59.6671 -59.6671 0 152.1152 -233.9074)">
				<stop  offset="0" style="stop-color:#1F1813"/>
				<stop  offset="0.1773" style="stop-color:#636266"/>
				<stop  offset="0.1841" style="stop-color:#605F63"/>
				<stop  offset="0.2256" style="stop-color:#514F4F"/>
				<stop  offset="0.2723" style="stop-color:#44403E"/>
				<stop  offset="0.3239" style="stop-color:#393431"/>
				<stop  offset="0.3822" style="stop-color:#312B27"/>
				<stop  offset="0.4503" style="stop-color:#29231F"/>
				<stop  offset="0.5344" style="stop-color:#231C19"/>
				<stop  offset="0.6525" style="stop-color:#201914"/>
				<stop  offset="0.9803" style="stop-color:#1F1813"/>
				<stop  offset="1" style="stop-color:#1F1813"/>
			</linearGradient>
			<rect x="51.92" y="33.29" class="st2" width="24.98" height="35.66"/>
		</g>
		<g class="st0">
			<defs>
				<path id="SVGID_9_" d="M87.43,37.55h3.92c1.1,0,1.96,0.33,2.63,1.01c0.67,0.68,1.01,1.61,1.02,2.83l-0.13,1.41
					c-0.33,1.59-1,2.87-2.06,3.91c-1.13,1.11-2.4,1.64-3.88,1.64h-3.42L87.43,37.55z M80.62,33.29l-6.41,35.66h7.59l2.93-16.43h4.81
					c5.43,0,9.33-2.21,11.6-6.56c0.75-1.44,1.13-2.91,1.13-4.38c0-1.75-0.53-3.36-1.57-4.79c-1.05-1.44-2.48-2.43-4.22-2.93
					c-0.75-0.24-1.35-0.39-1.81-0.46c-0.47-0.07-1.19-0.11-2.2-0.11H80.62z"/>
			</defs>
			<clipPath id="SVGID_10_">
				<use xlink:href="#SVGID_9_"  style="overflow:visible;"/>
			</clipPath>
			
				<linearGradient id="SVGID_11_" gradientUnits="userSpaceOnUse" x1="-5.0758" y1="1.7371" x2="-4.4782" y2="1.7371" gradientTransform="matrix(0 -59.6671 -59.6671 0 191.8899 -233.9074)">
				<stop  offset="0" style="stop-color:#1F1813"/>
				<stop  offset="0.1773" style="stop-color:#636266"/>
				<stop  offset="0.1841" style="stop-color:#605F63"/>
				<stop  offset="0.2256" style="stop-color:#514F4F"/>
				<stop  offset="0.2723" style="stop-color:#44403E"/>
				<stop  offset="0.3239" style="stop-color:#393431"/>
				<stop  offset="0.3822" style="stop-color:#312B27"/>
				<stop  offset="0.4503" style="stop-color:#29231F"/>
				<stop  offset="0.5344" style="stop-color:#231C19"/>
				<stop  offset="0.6525" style="stop-color:#201914"/>
				<stop  offset="0.9803" style="stop-color:#1F1813"/>
				<stop  offset="1" style="stop-color:#1F1813"/>
			</linearGradient>
			<rect x="74.21" y="33.29" class="st3" width="28.06" height="35.66"/>
		</g>
		<g class="st0">
			<defs>
				<polygon id="SVGID_12_" points="106.27,33.29 99.86,68.95 107.45,68.95 113.86,33.29 				"/>
			</defs>
			<clipPath id="SVGID_13_">
				<use xlink:href="#SVGID_12_"  style="overflow:visible;"/>
			</clipPath>
			
				<linearGradient id="SVGID_14_" gradientUnits="userSpaceOnUse" x1="-5.0758" y1="1.9473" x2="-4.4782" y2="1.9473" gradientTransform="matrix(0 -59.6671 -59.6671 0 223.0459 -233.9074)">
				<stop  offset="0" style="stop-color:#1F1813"/>
				<stop  offset="0.1773" style="stop-color:#636266"/>
				<stop  offset="0.1841" style="stop-color:#605F63"/>
				<stop  offset="0.2256" style="stop-color:#514F4F"/>
				<stop  offset="0.2723" style="stop-color:#44403E"/>
				<stop  offset="0.3239" style="stop-color:#393431"/>
				<stop  offset="0.3822" style="stop-color:#312B27"/>
				<stop  offset="0.4503" style="stop-color:#29231F"/>
				<stop  offset="0.5344" style="stop-color:#231C19"/>
				<stop  offset="0.6525" style="stop-color:#201914"/>
				<stop  offset="0.9803" style="stop-color:#1F1813"/>
				<stop  offset="1" style="stop-color:#1F1813"/>
			</linearGradient>
			<rect x="99.86" y="33.29" class="st4" width="14" height="35.66"/>
		</g>
		<g class="st0">
			<defs>
				<polygon id="SVGID_15_" points="140.54,33.29 136.65,55.1 122.7,33.29 118.3,33.29 111.89,68.95 116.22,68.95 120.66,44.2 
					137.97,72.08 144.92,33.29 				"/>
			</defs>
			<clipPath id="SVGID_16_">
				<use xlink:href="#SVGID_15_"  style="overflow:visible;"/>
			</clipPath>
			
				<linearGradient id="SVGID_17_" gradientUnits="userSpaceOnUse" x1="-4.633" y1="2.0134" x2="-4.0354" y2="2.0134" gradientTransform="matrix(0 -64.9137 -64.9137 0 259.1042 -228.6608)">
				<stop  offset="0" style="stop-color:#1F1813"/>
				<stop  offset="0.1773" style="stop-color:#636266"/>
				<stop  offset="0.1841" style="stop-color:#605F63"/>
				<stop  offset="0.2256" style="stop-color:#514F4F"/>
				<stop  offset="0.2723" style="stop-color:#44403E"/>
				<stop  offset="0.3239" style="stop-color:#393431"/>
				<stop  offset="0.3822" style="stop-color:#312B27"/>
				<stop  offset="0.4503" style="stop-color:#29231F"/>
				<stop  offset="0.5344" style="stop-color:#231C19"/>
				<stop  offset="0.6525" style="stop-color:#201914"/>
				<stop  offset="0.9803" style="stop-color:#1F1813"/>
				<stop  offset="1" style="stop-color:#1F1813"/>
			</linearGradient>
			<rect x="111.89" y="33.29" class="st5" width="33.03" height="38.79"/>
		</g>
		<g class="st0">
			<defs>
				<polygon id="SVGID_18_" points="147.71,33.29 146.9,37.55 153.01,37.55 147.33,68.95 154.93,68.95 160.56,37.55 166.55,37.55 
					167.36,33.29 				"/>
			</defs>
			<clipPath id="SVGID_19_">
				<use xlink:href="#SVGID_18_"  style="overflow:visible;"/>
			</clipPath>
			
				<linearGradient id="SVGID_20_" gradientUnits="userSpaceOnUse" x1="-5.0758" y1="2.5147" x2="-4.4782" y2="2.5147" gradientTransform="matrix(0 -59.6671 -59.6671 0 307.1722 -233.9074)">
				<stop  offset="0" style="stop-color:#1F1813"/>
				<stop  offset="0.1773" style="stop-color:#636266"/>
				<stop  offset="0.1841" style="stop-color:#605F63"/>
				<stop  offset="0.2256" style="stop-color:#514F4F"/>
				<stop  offset="0.2723" style="stop-color:#44403E"/>
				<stop  offset="0.3239" style="stop-color:#393431"/>
				<stop  offset="0.3822" style="stop-color:#312B27"/>
				<stop  offset="0.4503" style="stop-color:#29231F"/>
				<stop  offset="0.5344" style="stop-color:#231C19"/>
				<stop  offset="0.6525" style="stop-color:#201914"/>
				<stop  offset="0.9803" style="stop-color:#1F1813"/>
				<stop  offset="1" style="stop-color:#1F1813"/>
			</linearGradient>
			<rect x="146.9" y="33.29" class="st6" width="20.46" height="35.66"/>
		</g>
		<g class="st0">
			<defs>
				<path id="SVGID_21_" d="M173.35,33.29c-1.87,0-3.47,1.31-3.8,3.12l-4.97,27.63c-0.22,1.22,0.12,2.46,0.93,3.41
					c0.81,0.95,2,1.49,3.26,1.49h13.99l0.68-4.26h-11.41l2.19-12.08h10.4l0.83-4.21h-10.5l1.96-10.85h11.43l0.81-4.26H173.35z"/>
			</defs>
			<clipPath id="SVGID_22_">
				<use xlink:href="#SVGID_21_"  style="overflow:visible;"/>
			</clipPath>
			
				<linearGradient id="SVGID_23_" gradientUnits="userSpaceOnUse" x1="-5.0758" y1="2.7385" x2="-4.4782" y2="2.7385" gradientTransform="matrix(0 -59.6671 -59.6671 0 340.1693 -233.9074)">
				<stop  offset="0" style="stop-color:#1F1813"/>
				<stop  offset="0.1773" style="stop-color:#636266"/>
				<stop  offset="0.1841" style="stop-color:#605F63"/>
				<stop  offset="0.2256" style="stop-color:#514F4F"/>
				<stop  offset="0.2723" style="stop-color:#44403E"/>
				<stop  offset="0.3239" style="stop-color:#393431"/>
				<stop  offset="0.3822" style="stop-color:#312B27"/>
				<stop  offset="0.4503" style="stop-color:#29231F"/>
				<stop  offset="0.5344" style="stop-color:#231C19"/>
				<stop  offset="0.6525" style="stop-color:#201914"/>
				<stop  offset="0.9803" style="stop-color:#1F1813"/>
				<stop  offset="1" style="stop-color:#1F1813"/>
			</linearGradient>
			<rect x="164.37" y="33.29" class="st7" width="24.81" height="35.66"/>
		</g>
		<g class="st0">
			<defs>
				<polygon id="SVGID_24_" points="224.84,27.88 207.56,45.28 198.66,27.88 189.14,27.88 201.02,52.07 179.36,74.36 186.02,74.36 
					203.48,56.49 212.68,74.36 222.9,74.36 209.97,50.03 231.42,27.88 				"/>
			</defs>
			<clipPath id="SVGID_25_">
				<use xlink:href="#SVGID_24_"  style="overflow:visible;"/>
			</clipPath>
			
				<linearGradient id="SVGID_26_" gradientUnits="userSpaceOnUse" x1="-3.8463" y1="2.3466" x2="-3.2487" y2="2.3466" gradientTransform="matrix(0 -77.792 -77.792 0 387.9333 -224.8449)">
				<stop  offset="0" style="stop-color:#1F1813"/>
				<stop  offset="0.1773" style="stop-color:#636266"/>
				<stop  offset="0.1841" style="stop-color:#605F63"/>
				<stop  offset="0.2256" style="stop-color:#514F4F"/>
				<stop  offset="0.2723" style="stop-color:#44403E"/>
				<stop  offset="0.3239" style="stop-color:#393431"/>
				<stop  offset="0.3822" style="stop-color:#312B27"/>
				<stop  offset="0.4503" style="stop-color:#29231F"/>
				<stop  offset="0.5344" style="stop-color:#231C19"/>
				<stop  offset="0.6525" style="stop-color:#201914"/>
				<stop  offset="0.9803" style="stop-color:#1F1813"/>
				<stop  offset="1" style="stop-color:#1F1813"/>
			</linearGradient>
			<rect x="179.36" y="27.88" class="st8" width="52.05" height="46.49"/>
		</g>
		<g class="st0">
			<defs>
				<rect id="SVGID_27_" x="-26.43" y="-110.21" width="355.72" height="318.94"/>
			</defs>
			<clipPath id="SVGID_28_">
				<use xlink:href="#SVGID_27_"  style="overflow:visible;"/>
			</clipPath>
			<path class="st9" d="M265.34,68.01c0-0.09-0.01-0.19-0.01-0.27c0-4.5,3.72-8.15,8.31-8.15c4.6,0,8.31,3.65,8.31,8.15
				c0,4.5-3.72,8.15-8.31,8.15c-0.09,0-0.19-0.01-0.29-0.01h-8.01V68.01z"/>
			<path class="st10" d="M250.63,64.32c-0.16,0-0.32,0.01-0.47,0.01c-7.79,0-14.11-6.2-14.11-13.84c0-7.65,6.32-13.84,14.11-13.84
				c7.79,0,14.11,6.2,14.11,13.84c0,0.16-0.01,0.32-0.01,0.48v13.35H250.63z"/>
			<path class="st11" d="M279.63,54.35c0.17,0.01,0.33,0.01,0.5,0.01c8.12,0,14.7-6.45,14.7-14.41c0-7.96-6.58-14.42-14.7-14.42
				c-8.12,0-14.7,6.46-14.7,14.42c0,0.17,0.01,0.33,0.01,0.5v13.91H279.63z"/>
		</g>
	</g>
</g>
</svg>
